<?xml version="1.0" encoding="utf-8"?>
<!-- Generator: Adobe Illustrator 21.0.1, SVG Export Plug-In . SVG Version: 6.00 Build 0)  -->
<svg version="1.1" id="レイヤー_1" xmlns="http://www.w3.org/2000/svg" xmlns:xlink="http://www.w3.org/1999/xlink" x="0px"
	 y="0px" viewBox="0 0 55.7 15.3" style="enable-background:new 0 0 55.7 15.3;" xml:space="preserve">
<style type="text/css">
	.st0{fill:#FFFFFF;}
</style>
<g>
	<g>
		<path class="st0" d="M3.8,5.5h3.5v2.3c0,1.1-0.4,2.1-1,2.9c-0.7,0.8-1.5,1.2-2.5,1.2c-0.8,0-1.4-0.2-2-0.7
			c-0.5-0.4-0.9-0.9-1.2-1.4C0.6,9.6,0.5,9.4,0.5,9.3C0.4,9.1,0.4,8.9,0.4,8.7C0.3,8.2,0.2,7.3,0.2,6c0-1.3,0-2.2,0.1-2.7
			c0.1-0.4,0.2-0.8,0.3-1.1c0.2-0.5,0.6-1,1.2-1.4c0.5-0.4,1.2-0.6,2-0.6c1,0,1.7,0.3,2.3,1c0.6,0.6,1,1.4,1.1,2.4H5.7
			C5.6,3.2,5.3,2.8,5,2.4C4.7,2.1,4.3,2,3.8,2C3.4,2,3.1,2.1,2.9,2.2C2.6,2.4,2.4,2.6,2.3,2.8C2.1,3,1.9,3.4,1.9,3.7
			C1.8,4.2,1.8,4.9,1.8,6s0,1.9,0.1,2.3c0.1,0.4,0.2,0.7,0.4,1c0.2,0.2,0.4,0.4,0.6,0.6c0.3,0.2,0.6,0.3,0.9,0.3
			c0.6,0,1.1-0.2,1.5-0.7c0.4-0.4,0.6-1,0.6-1.7V7.1h-2V5.5z"/>
		<path class="st0" d="M3.8,12.1c-0.8,0-1.6-0.3-2.1-0.7c-0.6-0.4-1-0.9-1.2-1.5C0.4,9.7,0.3,9.5,0.3,9.4C0.2,9.2,0.1,9,0.1,8.7
			C0,8.2,0,7.4,0,6c0-1.4,0-2.2,0.1-2.7c0.1-0.5,0.2-0.9,0.4-1.2c0.2-0.5,0.7-1,1.2-1.5C2.3,0.2,3,0,3.8,0c1,0,1.9,0.4,2.5,1.1
			c0.6,0.7,1,1.5,1.2,2.5l0,0.3H5.5l0-0.2C5.3,3.3,5.1,2.9,4.8,2.6C4.6,2.4,4.2,2.2,3.8,2.2C3.5,2.2,3.2,2.3,3,2.4
			C2.8,2.6,2.6,2.7,2.5,2.9C2.3,3.2,2.2,3.4,2.1,3.8C2,4.2,2,4.9,2,6s0,1.9,0.1,2.2c0.1,0.4,0.2,0.6,0.3,0.9C2.6,9.3,2.8,9.5,3,9.6
			c0.2,0.2,0.5,0.2,0.8,0.2c0.5,0,0.9-0.2,1.3-0.6c0.3-0.4,0.5-0.9,0.5-1.6V7.3h-2V5.2h4v2.6c0,1.2-0.4,2.2-1.1,3
			C5.8,11.6,4.9,12.1,3.8,12.1z M3.8,0.5C3.1,0.5,2.5,0.7,2,1.1C1.5,1.5,1.1,1.9,0.9,2.4C0.8,2.7,0.7,3,0.6,3.4
			C0.5,3.9,0.5,4.7,0.5,6c0,1.3,0,2.2,0.1,2.6c0,0.2,0.1,0.4,0.1,0.6c0.1,0.1,0.1,0.3,0.2,0.5C1.1,10.2,1.5,10.6,2,11
			c0.5,0.4,1.1,0.6,1.8,0.6c0.9,0,1.7-0.4,2.3-1.1c0.6-0.7,0.9-1.6,1-2.7V5.7h-3v1.1h2v0.8c0,0.8-0.2,1.4-0.6,1.9
			c-0.4,0.5-1,0.8-1.6,0.8c-0.4,0-0.8-0.1-1.1-0.3C2.5,9.9,2.2,9.7,2,9.4C1.8,9.2,1.7,8.8,1.6,8.4C1.5,7.9,1.5,7.2,1.5,6
			c0-1.1,0-1.9,0.1-2.3c0.1-0.4,0.2-0.8,0.4-1.1C2.2,2.4,2.5,2.2,2.7,2c0.3-0.2,0.6-0.3,1-0.3c0.6,0,1,0.2,1.4,0.5
			C5.5,2.6,5.7,3,5.9,3.4H7c-0.2-0.8-0.5-1.4-1-2C5.4,0.8,4.7,0.5,3.8,0.5z"/>
	</g>
	<g>
		<path class="st0" d="M9.2,7.7c0-0.9,0.1-1.5,0.2-2c0.1-0.4,0.3-0.8,0.6-1.1c0.2-0.3,0.5-0.5,0.8-0.7c0.3-0.2,0.8-0.3,1.3-0.3
			c0.6,0,1,0.1,1.4,0.3c0.3,0.2,0.6,0.5,0.8,0.7c0.3,0.3,0.5,0.7,0.6,1.1C15,6.2,15,6.8,15,7.7c0,0.9-0.1,1.5-0.2,2
			c-0.1,0.4-0.3,0.8-0.6,1.2c-0.1,0.1-0.2,0.2-0.3,0.4c-0.1,0.1-0.3,0.2-0.5,0.3c-0.3,0.2-0.8,0.3-1.4,0.4c-0.5,0-1-0.1-1.3-0.4
			c-0.3-0.2-0.6-0.4-0.8-0.7c-0.3-0.3-0.5-0.7-0.6-1.2C9.2,9.2,9.2,8.5,9.2,7.7z M13.6,7.7c0-0.6,0-1-0.1-1.3c0-0.3-0.1-0.5-0.3-0.7
			c-0.1-0.2-0.3-0.3-0.5-0.4c-0.2-0.1-0.4-0.2-0.7-0.2c-0.2,0-0.5,0.1-0.7,0.2c-0.2,0.1-0.4,0.2-0.5,0.4c-0.1,0.2-0.2,0.4-0.3,0.7
			c-0.1,0.3-0.1,0.7-0.1,1.3c0,0.6,0,1,0.1,1.2c0.1,0.3,0.1,0.5,0.3,0.7c0.1,0.2,0.3,0.3,0.5,0.4c0.2,0.1,0.4,0.2,0.7,0.2
			c0.3,0,0.5-0.1,0.7-0.2c0.2-0.1,0.4-0.3,0.5-0.4c0.1-0.2,0.2-0.4,0.3-0.7C13.6,8.6,13.6,8.2,13.6,7.7z"/>
		<path class="st0" d="M12.1,12.1c-0.6,0-1.1-0.1-1.5-0.4c-0.4-0.2-0.7-0.5-0.9-0.7c-0.3-0.3-0.5-0.8-0.6-1.2C9,9.2,8.9,8.6,8.9,7.7
			c0-0.9,0.1-1.6,0.2-2c0.1-0.5,0.4-0.9,0.6-1.2c0.2-0.3,0.5-0.5,0.9-0.8c0.4-0.2,0.9-0.3,1.5-0.4c0.6,0,1.1,0.1,1.5,0.4
			c0.4,0.2,0.7,0.5,0.9,0.8c0.3,0.3,0.5,0.7,0.6,1.2c0.1,0.5,0.2,1.1,0.2,2c0,0.9-0.1,1.5-0.2,2c-0.1,0.5-0.3,0.9-0.7,1.3
			c-0.1,0.1-0.2,0.3-0.4,0.4c-0.1,0.1-0.3,0.3-0.5,0.4C13.2,11.9,12.7,12.1,12.1,12.1z M12.1,3.8c-0.5,0-0.9,0.1-1.2,0.3
			c-0.3,0.2-0.6,0.4-0.7,0.7C9.9,5,9.7,5.4,9.6,5.8C9.5,6.2,9.4,6.8,9.4,7.7c0,0.8,0.1,1.5,0.2,1.9c0.1,0.4,0.3,0.8,0.5,1.1
			c0.2,0.2,0.4,0.4,0.7,0.6c0.3,0.2,0.7,0.3,1.2,0.3c0.5,0,0.9-0.1,1.2-0.3c0.2-0.1,0.3-0.2,0.4-0.3c0.1-0.1,0.2-0.2,0.3-0.3
			c0.3-0.3,0.4-0.7,0.6-1.1c0.1-0.4,0.2-1.1,0.2-1.9c0-0.8-0.1-1.5-0.2-1.9c-0.1-0.4-0.3-0.7-0.5-1c-0.2-0.3-0.4-0.5-0.7-0.7
			C13,3.9,12.6,3.8,12.1,3.8z M12.1,10.5c-0.3,0-0.5-0.1-0.8-0.2c-0.2-0.1-0.4-0.3-0.6-0.5c-0.2-0.3-0.3-0.5-0.3-0.8
			c-0.1-0.3-0.1-0.7-0.1-1.3c0-0.6,0-1,0.1-1.3c0.1-0.3,0.2-0.5,0.3-0.8c0.1-0.2,0.3-0.4,0.6-0.5c0.5-0.3,1.1-0.2,1.6,0
			c0.2,0.1,0.4,0.3,0.6,0.5c0.1,0.2,0.3,0.5,0.3,0.8c0,0.3,0.1,0.7,0.1,1.3c0,0.6,0,1-0.1,1.3c-0.1,0.3-0.2,0.6-0.3,0.8
			c-0.1,0.2-0.3,0.4-0.5,0.5C12.7,10.4,12.4,10.5,12.1,10.5z M12.1,5.4c-0.2,0-0.4,0-0.6,0.1c-0.2,0.1-0.3,0.2-0.4,0.3
			C11.1,6,11,6.2,10.9,6.5c-0.1,0.2-0.1,0.7-0.1,1.2c0,0.5,0,0.9,0.1,1.2c0,0.2,0.1,0.4,0.2,0.6c0.1,0.1,0.2,0.2,0.4,0.3
			c0.3,0.2,0.8,0.2,1.1,0c0.2-0.1,0.3-0.2,0.4-0.3c0.1-0.2,0.2-0.4,0.2-0.6c0-0.2,0.1-0.6,0.1-1.2c0-0.6,0-1-0.1-1.2
			c0-0.2-0.1-0.4-0.2-0.6c-0.1-0.2-0.2-0.3-0.4-0.4C12.5,5.4,12.3,5.4,12.1,5.4z"/>
	</g>
	<g>
		<path class="st0" d="M19.7,1.2h1.4v2.5h1v1.2h-1v4.7c0,0.4,0.2,0.6,0.5,0.6h0.5v1.5h-0.7c-0.5,0-0.9-0.2-1.2-0.5
			c-0.3-0.3-0.5-0.8-0.5-1.5V4.9H19V3.6h0.7V1.2z"/>
		<path class="st0" d="M22.4,12h-1c-0.6,0-1-0.2-1.4-0.6c-0.4-0.4-0.6-0.9-0.6-1.6V5.1h-0.7V3.4h0.7V0.9h1.9v2.5h1v1.7h-1v4.5
			c0,0.2,0,0.3,0.1,0.3c0,0,0.1,0.1,0.2,0h0.8V12z M19.2,4.6h0.7v5.1c0,0.6,0.1,1,0.4,1.3c0.3,0.3,0.6,0.5,1,0.5h0.5v-1h-0.3
			c-0.2,0-0.4-0.1-0.5-0.2c-0.1-0.1-0.2-0.4-0.2-0.7v-5h1V3.9h-1V1.4h-0.9v2.5h-0.7V4.6z"/>
	</g>
	<g>
		<path class="st0" d="M23.5,7.7c0-0.9,0.1-1.5,0.2-2c0.1-0.4,0.3-0.8,0.6-1.1c0.2-0.3,0.5-0.5,0.8-0.7c0.3-0.2,0.8-0.3,1.3-0.3
			c0.6,0,1,0.1,1.4,0.3c0.3,0.2,0.6,0.5,0.8,0.7c0.3,0.3,0.5,0.7,0.6,1.1c0.1,0.5,0.2,1.1,0.2,2c0,0.9-0.1,1.5-0.2,2
			c-0.1,0.4-0.3,0.8-0.6,1.2c-0.1,0.1-0.2,0.2-0.3,0.4c-0.1,0.1-0.3,0.2-0.5,0.3c-0.3,0.2-0.8,0.3-1.4,0.4c-0.5,0-1-0.1-1.3-0.4
			c-0.3-0.2-0.6-0.4-0.8-0.7c-0.3-0.3-0.5-0.7-0.6-1.2C23.6,9.2,23.5,8.5,23.5,7.7z M28,7.7c0-0.6,0-1-0.1-1.3
			c0-0.3-0.1-0.5-0.3-0.7c-0.1-0.2-0.3-0.3-0.5-0.4c-0.2-0.1-0.4-0.2-0.7-0.2c-0.2,0-0.5,0.1-0.7,0.2c-0.2,0.1-0.4,0.2-0.5,0.4
			c-0.1,0.2-0.2,0.4-0.3,0.7C25,6.7,25,7.1,25,7.7c0,0.6,0,1,0.1,1.2c0.1,0.3,0.1,0.5,0.3,0.7c0.1,0.2,0.3,0.3,0.5,0.4
			c0.2,0.1,0.4,0.2,0.7,0.2c0.3,0,0.5-0.1,0.7-0.2c0.2-0.1,0.4-0.3,0.5-0.4c0.1-0.2,0.2-0.4,0.3-0.7C27.9,8.6,28,8.2,28,7.7z"/>
		<path class="st0" d="M26.5,12.1c-0.6,0-1.1-0.1-1.5-0.4c-0.4-0.2-0.7-0.5-0.9-0.7c-0.3-0.3-0.5-0.8-0.6-1.2
			c-0.1-0.5-0.2-1.1-0.2-2c0-0.9,0.1-1.6,0.2-2c0.1-0.5,0.4-0.9,0.6-1.2c0.2-0.3,0.5-0.5,0.9-0.8c0.4-0.2,0.9-0.3,1.5-0.4
			c0.6,0,1.1,0.1,1.5,0.4c0.4,0.2,0.7,0.5,0.9,0.8c0.3,0.3,0.5,0.7,0.6,1.2c0.1,0.5,0.2,1.1,0.2,2c0,0.9-0.1,1.5-0.2,2
			c-0.1,0.5-0.3,0.9-0.7,1.3c-0.1,0.1-0.2,0.3-0.4,0.4c-0.1,0.1-0.3,0.3-0.5,0.4C27.6,11.9,27.1,12.1,26.5,12.1z M26.5,3.8
			c-0.5,0-0.9,0.1-1.2,0.3c-0.3,0.2-0.6,0.4-0.7,0.7C24.3,5,24.1,5.4,24,5.8c-0.1,0.4-0.2,1.1-0.2,1.9c0,0.8,0.1,1.5,0.2,1.9
			c0.1,0.4,0.3,0.8,0.5,1.1c0.2,0.2,0.4,0.4,0.7,0.6c0.3,0.2,0.7,0.3,1.2,0.3c0.5,0,0.9-0.1,1.2-0.3c0.2-0.1,0.3-0.2,0.4-0.3
			c0.1-0.1,0.2-0.2,0.3-0.3c0.3-0.3,0.4-0.7,0.6-1.1c0.1-0.4,0.2-1.1,0.2-1.9c0-0.8-0.1-1.5-0.2-1.9c-0.1-0.4-0.3-0.7-0.5-1
			c-0.2-0.3-0.4-0.5-0.7-0.7C27.4,3.9,27,3.8,26.5,3.8z M26.5,10.5c-0.3,0-0.5-0.1-0.8-0.2c-0.2-0.1-0.4-0.3-0.6-0.5
			C25,9.5,24.9,9.3,24.8,9c-0.1-0.3-0.1-0.7-0.1-1.3c0-0.6,0-1,0.1-1.3c0.1-0.3,0.2-0.5,0.3-0.8c0.1-0.2,0.3-0.4,0.6-0.5
			c0.5-0.3,1.1-0.2,1.6,0c0.2,0.1,0.4,0.3,0.6,0.5c0.1,0.2,0.3,0.5,0.3,0.8c0,0.3,0.1,0.7,0.1,1.3c0,0.6,0,1-0.1,1.3
			c-0.1,0.3-0.2,0.6-0.3,0.8c-0.1,0.2-0.3,0.4-0.5,0.5C27,10.4,26.8,10.5,26.5,10.5z M26.5,5.4c-0.2,0-0.4,0-0.6,0.1
			c-0.2,0.1-0.3,0.2-0.4,0.3c-0.1,0.2-0.2,0.4-0.2,0.6c-0.1,0.2-0.1,0.7-0.1,1.2c0,0.5,0,0.9,0.1,1.2c0,0.2,0.1,0.4,0.2,0.6
			c0.1,0.1,0.2,0.2,0.4,0.3c0.3,0.2,0.8,0.2,1.1,0c0.2-0.1,0.3-0.2,0.4-0.3c0.1-0.2,0.2-0.4,0.2-0.6c0-0.2,0.1-0.6,0.1-1.2
			c0-0.6,0-1-0.1-1.2c0-0.2-0.1-0.4-0.2-0.6c-0.1-0.2-0.2-0.3-0.4-0.4C26.9,5.4,26.7,5.4,26.5,5.4z"/>
	</g>
	<g>
		<path class="st0" d="M35.8,1.9h-2.7V0.3H40v1.5h-2.7v9.9h-1.5V1.9z"/>
		<path class="st0" d="M37.5,12h-2V2.1h-2.7v-2h7.4v2h-2.7V12z M36,11.5h1V1.6h2.7v-1h-6.4v1H36V11.5z"/>
	</g>
	<g>
		<path class="st0" d="M41.4,7.7c0-0.9,0.1-1.5,0.2-2c0.1-0.4,0.3-0.8,0.6-1.1c0.2-0.3,0.5-0.5,0.8-0.7c0.3-0.2,0.8-0.3,1.3-0.3
			c0.6,0,1,0.1,1.4,0.3c0.3,0.2,0.6,0.5,0.8,0.7c0.3,0.3,0.5,0.7,0.6,1.1c0.1,0.5,0.2,1.1,0.2,2c0,0.9-0.1,1.5-0.2,2
			c-0.1,0.4-0.3,0.8-0.6,1.2c-0.1,0.1-0.2,0.2-0.3,0.4c-0.1,0.1-0.3,0.2-0.5,0.3c-0.3,0.2-0.8,0.3-1.4,0.4c-0.5,0-1-0.1-1.3-0.4
			c-0.3-0.2-0.6-0.4-0.8-0.7c-0.3-0.3-0.5-0.7-0.6-1.2C41.5,9.2,41.4,8.5,41.4,7.7z M45.8,7.7c0-0.6,0-1-0.1-1.3
			c0-0.3-0.1-0.5-0.3-0.7c-0.1-0.2-0.3-0.3-0.5-0.4c-0.2-0.1-0.4-0.2-0.7-0.2c-0.2,0-0.5,0.1-0.7,0.2c-0.2,0.1-0.4,0.2-0.5,0.4
			C43,5.9,43,6.2,42.9,6.4c-0.1,0.3-0.1,0.7-0.1,1.3c0,0.6,0,1,0.1,1.2C43,9.2,43,9.4,43.2,9.6c0.1,0.2,0.3,0.3,0.5,0.4
			c0.2,0.1,0.4,0.2,0.7,0.2c0.3,0,0.5-0.1,0.7-0.2c0.2-0.1,0.4-0.3,0.5-0.4c0.1-0.2,0.2-0.4,0.3-0.7C45.8,8.6,45.8,8.2,45.8,7.7z"/>
		<path class="st0" d="M44.3,12.1c-0.6,0-1.1-0.1-1.5-0.4c-0.4-0.2-0.7-0.5-0.9-0.7c-0.3-0.3-0.5-0.8-0.6-1.2
			c-0.1-0.5-0.2-1.1-0.2-2c0-0.9,0.1-1.6,0.2-2c0.1-0.5,0.4-0.9,0.6-1.2c0.2-0.3,0.5-0.5,0.9-0.8c0.4-0.2,0.9-0.3,1.5-0.4
			c0.6,0,1.1,0.1,1.5,0.4c0.4,0.2,0.7,0.5,0.9,0.8c0.3,0.3,0.5,0.7,0.6,1.2c0.1,0.5,0.2,1.2,0.2,2c0,0.9-0.1,1.5-0.2,2
			c-0.1,0.5-0.3,0.9-0.7,1.3c-0.1,0.1-0.2,0.3-0.4,0.4c-0.1,0.1-0.3,0.3-0.5,0.4C45.4,11.9,44.9,12.1,44.3,12.1z M44.3,3.8
			c-0.5,0-0.9,0.1-1.2,0.3c-0.3,0.2-0.6,0.4-0.7,0.7c-0.3,0.3-0.4,0.6-0.5,1.1c-0.1,0.4-0.2,1.1-0.2,1.9c0,0.8,0.1,1.5,0.2,1.9
			c0.1,0.4,0.3,0.8,0.5,1.1c0.2,0.2,0.4,0.4,0.7,0.6c0.3,0.2,0.7,0.3,1.2,0.3c0.5,0,0.9-0.1,1.2-0.3c0.2-0.1,0.3-0.2,0.4-0.3
			c0.1-0.1,0.2-0.2,0.3-0.3c0.3-0.3,0.4-0.7,0.6-1.1C46.9,9.1,47,8.5,47,7.7c0-0.8-0.1-1.5-0.2-1.9c-0.1-0.4-0.3-0.7-0.5-1
			c-0.2-0.3-0.4-0.5-0.7-0.7C45.2,3.9,44.8,3.8,44.3,3.8z M44.3,10.5c-0.3,0-0.6-0.1-0.8-0.2c-0.2-0.1-0.4-0.3-0.6-0.5
			c-0.2-0.3-0.3-0.5-0.3-0.8c-0.1-0.3-0.1-0.7-0.1-1.3c0-0.6,0-1,0.1-1.3c0.1-0.3,0.2-0.5,0.3-0.8c0.1-0.2,0.3-0.4,0.6-0.5
			c0.5-0.3,1.1-0.3,1.6,0c0.2,0.1,0.4,0.3,0.6,0.5c0.1,0.2,0.3,0.5,0.3,0.8c0,0.3,0.1,0.7,0.1,1.3c0,0.6,0,1-0.1,1.3
			c0,0.3-0.2,0.6-0.3,0.8c-0.1,0.2-0.3,0.4-0.5,0.5C44.9,10.4,44.6,10.5,44.3,10.5z M44.3,5.4c-0.2,0-0.4,0-0.6,0.1
			c-0.2,0.1-0.3,0.2-0.4,0.3c-0.1,0.2-0.2,0.4-0.2,0.6c-0.1,0.2-0.1,0.7-0.1,1.2c0,0.5,0,0.9,0.1,1.2c0,0.2,0.1,0.4,0.2,0.6
			c0.1,0.1,0.2,0.2,0.4,0.3c0.3,0.2,0.8,0.2,1.1,0c0.2-0.1,0.3-0.2,0.4-0.3c0.1-0.2,0.2-0.4,0.2-0.6c0-0.2,0.1-0.6,0.1-1.2
			c0-0.6,0-1-0.1-1.2c0-0.2-0.1-0.4-0.2-0.6c-0.1-0.2-0.2-0.3-0.4-0.4C44.7,5.4,44.5,5.4,44.3,5.4z"/>
	</g>
	<g>
		<path class="st0" d="M49.8,3.6h1.4v0.8c0.5-0.6,1.1-0.9,1.8-0.9c0.9,0,1.5,0.4,1.9,1.1c0.2,0.3,0.3,0.6,0.4,1
			c0.1,0.4,0.1,1.1,0.1,2.1c0,1,0,1.6-0.1,2.1c-0.1,0.4-0.2,0.8-0.4,1c-0.2,0.3-0.5,0.6-0.8,0.8c-0.3,0.2-0.7,0.3-1.1,0.3
			c-0.4,0-0.7-0.1-1-0.3c-0.3-0.2-0.6-0.4-0.9-0.7V15h-1.4V3.6z M52.6,10.2c0.3,0,0.6-0.1,0.8-0.2c0.2-0.2,0.3-0.3,0.4-0.6
			C53.9,9.2,54,8.9,54,8.6c0-0.3,0-0.6,0-0.9c0-0.3,0-0.6,0-0.9c0-0.3-0.1-0.6-0.2-0.8c-0.1-0.2-0.2-0.4-0.4-0.6
			c-0.2-0.1-0.5-0.2-0.8-0.2c-0.3,0-0.6,0.1-0.8,0.2c-0.2,0.2-0.3,0.4-0.4,0.6c-0.1,0.2-0.1,0.5-0.2,0.8c0,0.3,0,0.6,0,0.9
			c0,0.3,0,0.6,0,0.9c0,0.3,0.1,0.6,0.2,0.8c0.1,0.2,0.2,0.4,0.4,0.6C52.1,10.1,52.3,10.2,52.6,10.2z"/>
		<path class="st0" d="M51.5,15.3h-1.9V3.4h1.9v0.5c0.4-0.4,1-0.6,1.6-0.6c1,0,1.7,0.4,2.1,1.2c0.2,0.3,0.4,0.6,0.4,1.1
			c0.1,0.4,0.1,1.1,0.1,2.1c0,1,0,1.7-0.1,2.1c-0.1,0.5-0.2,0.8-0.4,1.1c-0.2,0.3-0.5,0.6-0.8,0.8c-0.3,0.2-0.8,0.3-1.2,0.3
			c-0.4,0-0.8-0.1-1.1-0.3c-0.2-0.1-0.3-0.2-0.5-0.3V15.3z M50.1,14.8H51v-4.5l0.4,0.5c0.2,0.3,0.5,0.5,0.8,0.6
			c0.3,0.2,0.5,0.2,0.9,0.2c0.4,0,0.7-0.1,1-0.3c0.3-0.2,0.5-0.4,0.7-0.7c0.2-0.2,0.3-0.6,0.4-0.9c0.1-0.4,0.1-1.1,0.1-2
			c0-1,0-1.7-0.1-2.1C55,5.3,54.9,5,54.8,4.7c-0.4-0.6-0.9-0.9-1.7-1c-0.7,0-1.2,0.3-1.6,0.8L51,5.2V3.9h-0.9V14.8z M52.6,10.5
			c-0.4,0-0.7-0.1-0.9-0.3c-0.2-0.2-0.4-0.4-0.5-0.7c-0.1-0.3-0.2-0.6-0.2-0.9c0-0.3,0-0.6,0-0.9c0-0.3,0-0.6,0-0.9
			c0-0.3,0.1-0.6,0.2-0.9c0.1-0.3,0.3-0.5,0.5-0.7c0.2-0.2,0.5-0.3,0.9-0.3c0.4,0,0.7,0.1,0.9,0.2c0.2,0.2,0.4,0.4,0.5,0.7
			c0.1,0.2,0.2,0.5,0.2,0.9c0,0.3,0,0.6,0,1c0,0.3,0,0.6,0,0.9c0,0.3-0.1,0.6-0.2,0.9c-0.1,0.3-0.3,0.5-0.5,0.7
			C53.3,10.4,53,10.5,52.6,10.5z M52.6,5.4c-0.3,0-0.5,0.1-0.6,0.2c-0.2,0.1-0.3,0.3-0.4,0.5c-0.1,0.2-0.1,0.5-0.2,0.7
			c0,0.3,0,0.6,0,0.9c0,0.3,0,0.6,0,0.8c0,0.3,0.1,0.5,0.2,0.8c0.1,0.2,0.2,0.4,0.3,0.5c0.1,0.1,0.3,0.2,0.6,0.2
			c0.3,0,0.5-0.1,0.6-0.2c0.2-0.1,0.3-0.3,0.3-0.5c0.1-0.2,0.1-0.5,0.2-0.8c0-0.3,0-0.6,0-0.9c0-0.3,0-0.6,0-0.9
			c0-0.3-0.1-0.5-0.2-0.7c-0.1-0.2-0.2-0.4-0.3-0.5C53.1,5.4,52.9,5.4,52.6,5.4z"/>
	</g>
</g>
</svg>
